<?xml version="1.0" encoding="utf-8"?>
<!-- Generator: Adobe Illustrator 17.0.0, SVG Export Plug-In . SVG Version: 6.00 Build 0)  -->
<!DOCTYPE svg PUBLIC "-//W3C//DTD SVG 1.1//EN" "http://www.w3.org/Graphics/SVG/1.1/DTD/svg11.dtd">
<svg version="1.1" id="Layer_1" xmlns="http://www.w3.org/2000/svg" xmlns:xlink="http://www.w3.org/1999/xlink" x="0px" y="0px"
	 width="355.413px" height="207.023px" viewBox="0 0 355.413 207.023" enable-background="new 0 0 355.413 207.023"
	 xml:space="preserve">
<g>
	<defs>
		<rect id="SVGID_1_" width="355.413" height="207.023"/>
	</defs>
	<clipPath id="SVGID_2_">
		<use xlink:href="#SVGID_1_"  overflow="visible"/>
	</clipPath>
	<path clip-path="url(#SVGID_2_)" fill="#2F2A76" d="M169.495,173.142v-1.214c-0.973,0.973-1.895,1.371-3.553,1.371
		c-1.659,0-2.766-0.398-3.582-1.213c-0.685-0.709-1.055-1.738-1.055-2.868c0-2.242,1.556-3.845,4.609-3.845h3.53v-0.95
		c0-1.686-0.843-2.502-2.923-2.502c-1.474,0-2.187,0.343-2.924,1.289l-1.765-1.659c1.265-1.473,2.581-1.922,4.795-1.922
		c3.66,0,5.504,1.552,5.504,4.581v8.932H169.495z M169.444,167.24h-3.136c-1.58,0-2.395,0.713-2.395,1.923
		c0,1.213,0.764,1.895,2.45,1.895c1.028,0,1.789-0.075,2.502-0.765c0.394-0.394,0.579-1.024,0.579-1.974V167.24z"/>
	<path clip-path="url(#SVGID_2_)" fill="#2F2A76" d="M179.66,173.141c-2.502,0-3.664-1.793-3.664-3.711v-7.352h-1.525v-2.052h1.525
		v-4.058h2.691v4.058h2.58v2.052h-2.58v7.218c0,0.973,0.473,1.556,1.473,1.556h1.107v2.289H179.66z"/>
	<path clip-path="url(#SVGID_2_)" fill="#2F2A76" d="M183.948,154.31h2.844v2.844h-2.844V154.31z M184.027,159.787h2.687v13.352
		h-2.687V159.787z"/>
	<path clip-path="url(#SVGID_2_)" fill="#2F2A76" d="M192.374,167.241c0,2.292,1.214,3.738,3.4,3.738
		c1.501,0,2.289-0.421,3.239-1.367l1.713,1.604c-1.371,1.371-2.663,2.084-5.003,2.084c-3.349,0-6.008-1.765-6.008-6.851
		c0-4.318,2.238-6.82,5.665-6.82c3.581,0,5.662,2.636,5.662,6.426v1.186H192.374z M198.012,163.553
		c-0.422-1.001-1.371-1.686-2.632-1.686c-1.264,0-2.242,0.685-2.663,1.686c-0.26,0.607-0.315,1.001-0.343,1.816h6.008
		C198.354,164.554,198.275,164.16,198.012,163.553"/>
	<path clip-path="url(#SVGID_2_)" fill="#2F2A76" d="M207.121,162.078v11.063h-2.687v-11.063h-1.528v-2.053h1.528v-2.056
		c0-1.923,1.158-3.711,3.66-3.711h1.686v2.289h-1.186c-1,0-1.473,0.579-1.473,1.556v1.922h2.659v2.053H207.121z"/>
	<path clip-path="url(#SVGID_2_)" fill="#2F2A76" d="M227.897,171.717c-0.871,0.899-2.187,1.58-4.003,1.58
		c-1.82,0-3.108-0.681-3.979-1.58c-1.265-1.316-1.58-3.002-1.58-5.267c0-2.238,0.315-3.924,1.58-5.24
		c0.871-0.898,2.159-1.58,3.979-1.58c1.816,0,3.132,0.682,4.003,1.58c1.265,1.316,1.58,3.002,1.58,5.24
		C229.477,168.715,229.162,170.401,227.897,171.717 M225.868,162.79c-0.5-0.5-1.186-0.764-1.974-0.764
		c-0.792,0-1.45,0.264-1.95,0.764c-0.815,0.816-0.922,2.214-0.922,3.66c0,1.45,0.107,2.844,0.922,3.66
		c0.5,0.5,1.158,0.792,1.95,0.792c0.788,0,1.474-0.292,1.974-0.792c0.815-0.816,0.922-2.21,0.922-3.66
		C226.79,165.004,226.683,163.606,225.868,162.79"/>
	<path clip-path="url(#SVGID_2_)" fill="#2F2A76" d="M240.745,173.141v-8.139c0-2.081-1.186-2.975-2.687-2.975
		c-1.501,0-2.766,0.922-2.766,2.975v8.139h-2.686v-13.352h2.635v1.344c0.922-1.005,2.21-1.501,3.554-1.501
		c1.371,0,2.501,0.445,3.293,1.209c1.029,1.001,1.344,2.266,1.344,3.767v8.533H240.745z"/>
	<path clip-path="url(#SVGID_2_)" fill="#2F2A76" d="M250.961,173.141c-2.502,0-3.664-1.793-3.664-3.711v-7.352h-1.525v-2.052h1.525
		v-4.058h2.691v4.058h2.58v2.052h-2.58v7.218c0,0.973,0.473,1.556,1.473,1.556h1.107v2.289H250.961z"/>
	<polygon clip-path="url(#SVGID_2_)" fill="#2F2A76" points="269.393,173.141 267.104,173.141 263.968,163.816 260.86,173.141 
		258.543,173.141 254.406,159.789 257.251,159.789 259.831,169.189 262.94,159.789 265.02,159.789 268.101,169.189 270.685,159.789 
		273.553,159.789 	"/>
	<path clip-path="url(#SVGID_2_)" fill="#2F2A76" d="M275.736,154.31h2.844v2.844h-2.844V154.31z M275.814,159.787h2.687v13.352
		h-2.687V159.787z"/>
	<polygon clip-path="url(#SVGID_2_)" fill="#2F2A76" points="290.534,173.141 286.795,166.975 284.821,169.217 284.821,173.141 
		282.131,173.141 282.131,154.388 284.821,154.388 284.821,165.951 290.006,159.789 293.276,159.789 288.639,165.029 
		293.851,173.141 	"/>
	<polygon clip-path="url(#SVGID_2_)" fill="#2F2A76" points="304.701,173.141 300.961,166.975 298.987,169.217 298.987,173.141 
		296.297,173.141 296.297,154.388 298.987,154.388 298.987,165.951 304.172,159.789 307.438,159.789 302.805,165.029 
		308.017,173.141 	"/>
	<path clip-path="url(#SVGID_2_)" fill="#2F2A76" d="M311.622,167.241c0,2.292,1.214,3.738,3.4,3.738
		c1.497,0,2.289-0.421,3.239-1.367l1.709,1.604c-1.367,1.371-2.659,2.084-5.003,2.084c-3.345,0-6.004-1.765-6.004-6.851
		c0-4.318,2.238-6.82,5.661-6.82c3.581,0,5.666,2.636,5.666,6.426v1.186H311.622z M317.26,163.553
		c-0.422-1.001-1.371-1.686-2.636-1.686c-1.264,0-2.238,0.685-2.659,1.686c-0.264,0.607-0.315,1.001-0.343,1.816h6.008
		C317.603,164.554,317.524,164.16,317.26,163.553"/>
	<path clip-path="url(#SVGID_2_)" fill="#2F2A76" d="M326.842,173.141c-2.553,0-3.66-1.714-3.66-3.688v-15.065h2.687v14.908
		c0,1.028,0.366,1.556,1.45,1.556h1.182v2.289H326.842z"/>
	<path clip-path="url(#SVGID_2_)" fill="#2F2A76" d="M332.897,167.241c0,2.292,1.214,3.738,3.4,3.738
		c1.497,0,2.289-0.421,3.239-1.367l1.709,1.604c-1.367,1.371-2.659,2.084-5.003,2.084c-3.345,0-6.004-1.765-6.004-6.851
		c0-4.318,2.238-6.82,5.661-6.82c3.581,0,5.666,2.636,5.666,6.426v1.186H332.897z M338.535,163.553
		c-0.422-1.001-1.371-1.686-2.636-1.686c-1.264,0-2.238,0.685-2.659,1.686c-0.264,0.607-0.315,1.001-0.343,1.816h6.008
		C338.878,164.554,338.799,164.16,338.535,163.553"/>
	<path clip-path="url(#SVGID_2_)" fill="#2F2A76" d="M352.726,173.141v-8.139c0-2.081-1.186-2.975-2.687-2.975
		s-2.766,0.922-2.766,2.975v8.139h-2.686v-13.352h2.635v1.344c0.922-1.005,2.21-1.501,3.554-1.501c1.371,0,2.502,0.445,3.293,1.209
		c1.029,1.001,1.344,2.266,1.344,3.767v8.533H352.726z"/>
	<polygon clip-path="url(#SVGID_2_)" fill="#2F2A76" points="36.162,156.942 36.162,173.142 33.318,173.142 33.318,156.942 
		28.156,156.942 28.156,154.389 41.323,154.389 41.323,156.942 	"/>
	<rect x="205.439" y="116.726" clip-path="url(#SVGID_2_)" fill="#199CA4" width="9.625" height="9.629"/>
	<path clip-path="url(#SVGID_2_)" fill="#2F2A76" d="M48.932,173.142v-1.214c-0.973,0.973-1.895,1.371-3.553,1.371
		c-1.659,0-2.766-0.398-3.582-1.213c-0.685-0.709-1.055-1.738-1.055-2.868c0-2.242,1.556-3.845,4.609-3.845h3.53v-0.95
		c0-1.686-0.843-2.502-2.923-2.502c-1.474,0-2.187,0.343-2.924,1.289l-1.765-1.659c1.265-1.473,2.581-1.922,4.795-1.922
		c3.66,0,5.504,1.552,5.504,4.581v8.932H48.932z M48.881,167.24h-3.136c-1.58,0-2.395,0.713-2.395,1.923
		c0,1.213,0.764,1.895,2.45,1.895c1.028,0,1.789-0.075,2.502-0.765c0.394-0.394,0.579-1.024,0.579-1.974V167.24z"/>
	<path clip-path="url(#SVGID_2_)" fill="#2F2A76" d="M58.701,173.141c-2.553,0-3.664-1.714-3.664-3.688v-15.065h2.691v14.908
		c0,1.028,0.366,1.556,1.446,1.556h1.186v2.289H58.701z"/>
	<path clip-path="url(#SVGID_2_)" fill="#2F2A76" d="M64.755,167.241c0,2.292,1.214,3.738,3.4,3.738
		c1.501,0,2.289-0.421,3.239-1.367l1.713,1.604c-1.371,1.371-2.663,2.084-5.007,2.084c-3.345,0-6.004-1.765-6.004-6.851
		c0-4.318,2.238-6.82,5.661-6.82c3.581,0,5.666,2.636,5.666,6.426v1.186H64.755z M70.393,163.553
		c-0.422-1.001-1.371-1.686-2.636-1.686c-1.264,0-2.238,0.685-2.659,1.686c-0.26,0.607-0.315,1.001-0.343,1.816h6.008
		C70.735,164.554,70.657,164.16,70.393,163.553"/>
	<path clip-path="url(#SVGID_2_)" fill="#2F2A76" d="M84.584,173.141v-8.139c0-2.081-1.186-2.975-2.687-2.975
		s-2.766,0.922-2.766,2.975v8.139h-2.686v-13.352h2.635v1.344c0.922-1.005,2.21-1.501,3.554-1.501c1.371,0,2.501,0.445,3.293,1.209
		c1.029,1.001,1.344,2.266,1.344,3.767v8.533H84.584z"/>
	<path clip-path="url(#SVGID_2_)" fill="#2F2A76" d="M94.798,173.141c-2.502,0-3.66-1.793-3.66-3.711v-7.352h-1.529v-2.052h1.529
		v-4.058h2.687v4.058h2.58v2.052h-2.58v7.218c0,0.973,0.473,1.556,1.473,1.556h1.107v2.289H94.798z"/>
	<path clip-path="url(#SVGID_2_)" fill="#2F2A76" d="M130.37,173.298c-3.002,0-5.953-1.844-5.953-6.847
		c0-5.004,2.951-6.824,5.953-6.824c1.844,0,3.136,0.528,4.397,1.872l-1.844,1.788c-0.839-0.918-1.501-1.26-2.553-1.26
		c-1.028,0-1.895,0.421-2.478,1.185c-0.575,0.737-0.788,1.683-0.788,3.239c0,1.552,0.213,2.529,0.788,3.266
		c0.583,0.764,1.45,1.186,2.478,1.186c1.052,0,1.714-0.347,2.553-1.265l1.844,1.765C133.506,172.746,132.214,173.298,130.37,173.298
		"/>
	<path clip-path="url(#SVGID_2_)" fill="#2F2A76" d="M144.72,162.922c-0.607-0.607-1.08-0.898-2.001-0.898
		c-1.45,0-2.66,1.162-2.66,3.006v8.112h-2.687v-13.356h2.632v1.45c0.686-0.95,2.057-1.608,3.558-1.608
		c1.288,0,2.265,0.343,3.187,1.265L144.72,162.922z"/>
	<path clip-path="url(#SVGID_2_)" fill="#2F2A76" d="M150.431,167.241c0,2.292,1.214,3.738,3.4,3.738
		c1.501,0,2.289-0.421,3.239-1.367l1.713,1.604c-1.371,1.371-2.663,2.084-5.007,2.084c-3.345,0-6.004-1.765-6.004-6.851
		c0-4.318,2.238-6.82,5.661-6.82c3.581,0,5.666,2.636,5.666,6.426v1.186H150.431z M156.069,163.553
		c-0.422-1.001-1.371-1.686-2.636-1.686c-1.264,0-2.238,0.685-2.659,1.686c-0.26,0.607-0.315,1.001-0.343,1.816h6.008
		C156.412,164.554,156.333,164.16,156.069,163.553"/>
	<polygon clip-path="url(#SVGID_2_)" fill="#199CA4" points="28.307,126.357 19.573,126.357 0,73.006 11.366,73.006 23.993,110.571 
		36.513,73.006 47.879,73.006 	"/>
	<path clip-path="url(#SVGID_2_)" fill="#199CA4" d="M63.136,126.357c-10.208,0-14.628-6.843-14.628-14.734V51.432h10.736v59.56
		c0,4.105,1.473,6.209,5.787,6.209h4.735v9.156H63.136z"/>
	<path clip-path="url(#SVGID_2_)" fill="#199CA4" d="M102.068,126.359v-4.842c-3.893,3.893-7.576,5.469-14.203,5.469
		c-6.63,0-11.051-1.576-14.313-4.838c-2.734-2.841-4.207-6.95-4.207-11.473c0-8.943,6.205-15.361,18.414-15.361h14.1v-3.79
		c0-6.733-3.368-9.995-11.681-9.995c-5.894,0-8.735,1.367-11.681,5.153l-7.049-6.626c5.051-5.894,10.311-7.683,19.151-7.683
		c14.628,0,21.992,6.209,21.992,18.308v35.678H102.068z M101.859,102.784h-12.52c-6.316,0-9.578,2.841-9.578,7.682
		c0,4.838,3.053,7.576,9.786,7.576c4.102,0,7.155-0.315,9.995-3.053c1.58-1.576,2.317-4.101,2.317-7.891V102.784z"/>
	<path clip-path="url(#SVGID_2_)" fill="#2F2A76" d="M171.552,35.923c-13.592,5.953,1.446-19.202,6.709-29.516
		C185.719-8.198,188.579,28.465,171.552,35.923"/>
	<path clip-path="url(#SVGID_2_)" fill="#199CA4" d="M241.822,114.569c1.521,1.521,2.505,3.624,2.505,6.307
		c0,2.679-0.984,4.783-2.505,6.304c-2.281,2.238-5.366,2.683-8.766,2.683c-3.396,0-6.481-0.445-8.766-2.683
		c-1.521-1.521-2.502-3.625-2.502-6.304c0-2.683,0.981-4.786,2.502-6.307c2.285-2.238,5.37-2.683,8.766-2.683
		C236.456,111.886,239.541,112.331,241.822,114.569 M226.26,116.85c-1.028,1.028-1.611,2.458-1.611,4.026
		c0,1.561,0.583,2.951,1.611,3.979c1.611,1.608,4.342,1.785,6.796,1.785c2.462,0,5.189-0.177,6.8-1.785
		c1.028-1.028,1.611-2.418,1.611-3.979c0-1.568-0.583-2.998-1.611-4.026c-1.611-1.611-4.338-1.745-6.8-1.745
		C230.602,115.105,227.871,115.239,226.26,116.85"/>
	<path clip-path="url(#SVGID_2_)" fill="#199CA4" d="M226.26,96.099c-1.206,1.206-1.611,2.1-1.611,3.802
		c0,3.219,2.553,5.275,5.901,5.275h13.509v3.223h-22.003v-3.223h2.683c-1.832-1.205-2.951-3.621-2.951-6.169
		c0-2.104,0.493-3.712,2.057-5.28L226.26,96.099z"/>
	<path clip-path="url(#SVGID_2_)" fill="#199CA4" d="M254.166,85.276c0,3.31-0.851,5.142-2.955,7.47l-2.056-2.104
		c1.434-1.611,2.194-2.726,2.194-5.275c0-4.251-2.998-6.039-6.752-6.039h-3.444c2.278,1.788,2.861,3.801,2.861,6.169
		c0,2.238-0.804,4.16-1.966,5.323c-2.195,2.194-5.595,2.683-9.172,2.683c-3.577,0-6.973-0.489-9.164-2.683
		c-1.162-1.163-1.926-3.128-1.926-5.366c0-2.415,0.536-4.381,2.864-6.17h-2.592v-3.175h22.673
		C250.183,76.109,254.166,79.505,254.166,85.276 M224.65,84.784c0,4.787,4.113,5.5,8.226,5.5c4.117,0,8.23-0.713,8.23-5.5
		c0-4.787-4.113-5.456-8.23-5.456C228.763,79.328,224.65,79.997,224.65,84.784"/>
	<path clip-path="url(#SVGID_2_)" fill="#2F2A76" d="M124.59,135.236c-12.201,26.258-28.315,54.096-46.075,68.693
		c-5.98,4.916,1.032,3.569,7.454-1.202c13.427-9.967,31.266-33.669,46.93-59.549c-1.718-0.945-3.274-2.076-4.618-3.403
		C126.847,138.356,125.626,136.836,124.59,135.236"/>
	<path clip-path="url(#SVGID_2_)" fill="#2F2A76" d="M168.496,57.069c-0.055-0.792-0.15-1.544-0.296-2.23
		c-1.761-8.234-16.365-6.611-24.875-5.48c-24.233,3.235-74.188,18.008-80.456,21.688c-4.819,2.829,16.712-3.487,27.948-5.902
		c20.541-4.412,42.08-8.431,51.181-6.733c5.787,1.08,7.284,4.649,6.866,9.641c-0.066,0.784-0.177,1.603-0.331,2.454
		c-0.531,2.998-1.536,6.379-2.615,9.964c-2.033,6.76-5.76,17.646-10.827,30.363c1.151,6.268,3.57,12.099,6.816,16.795
		c14.829-26.806,26.026-53.477,26.617-67.798C168.563,58.85,168.555,57.928,168.496,57.069"/>
	<path clip-path="url(#SVGID_2_)" fill="#E30D18" d="M194.196,59.917c-6.962-5.055-16.161-5.76-25.699-2.848
		c0.059,0.858,0.067,1.78,0.028,2.761c3.81-0.563,7.536-0.279,10.94,0.997c14.479,5.413,19.86,26.802,12.02,47.773
		c-7.84,20.967-20.305,32.955-35.398,29.685c-5.389-1.166-10.357-5.121-14.179-10.66c-3.246-4.689-5.665-10.527-6.819-16.791
		c-1.32-7.206-0.97-14.975,1.741-22.22c2.683-7.178,6.831-13.332,11.705-18.107c0.15-0.851,0.264-1.671,0.331-2.455
		c-4.598,3.822-8.951,8.427-12.82,13.754c-15.042,20.703-20.104,40.071-11.457,53.43c1.036,1.6,2.258,3.12,3.692,4.539
		c1.343,1.327,2.899,2.454,4.621,3.404c15.601,8.612,45.141,1.721,60.313-19.163C210.061,100.831,209.466,71.011,194.196,59.917"/>
</g>
</svg>
